<?xml version="1.0" standalone="no"?>
<!DOCTYPE svg PUBLIC "-//W3C//DTD SVG 20010904//EN"
 "http://www.w3.org/TR/2001/REC-SVG-20010904/DTD/svg10.dtd">
<svg version="1.0" xmlns="http://www.w3.org/2000/svg"
 width="256.000000pt" height="256.000000pt" viewBox="0 0 256.000000 256.000000"
 preserveAspectRatio="xMidYMid meet">

<g transform="translate(0.000000,256.000000) scale(0.100000,-0.100000)"
fill="#000000" stroke="none">
<path d="M1250 2490 c0 -5 -13 -10 -30 -10 -16 0 -30 -4 -30 -9 0 -5 -25 -12
-55 -16 -30 -3 -55 -11 -55 -16 0 -5 -9 -9 -20 -9 -11 0 -20 -4 -20 -10 0 -5
-6 -10 -13 -10 -7 0 -20 -8 -29 -17 -9 -10 -22 -23 -29 -29 -6 -7 -25 -26 -41
-43 -16 -17 -33 -31 -38 -31 -4 0 -11 -16 -14 -35 -4 -19 -11 -35 -16 -35 -6
0 -13 -18 -16 -40 -4 -22 -10 -40 -15 -40 -5 0 -9 -47 -9 -105 0 -58 4 -105 9
-105 5 0 11 -18 15 -40 3 -22 11 -40 16 -40 6 0 10 -11 10 -25 0 -14 7 -28 15
-31 8 -4 15 -12 15 -20 0 -16 83 -104 98 -104 6 0 18 -7 26 -16 14 -13 16 -53
16 -280 l0 -264 -80 0 c-44 0 -80 -4 -80 -9 0 -5 -23 -11 -52 -13 -29 -3 -54
-11 -56 -17 -2 -6 -10 -11 -18 -11 -8 0 -14 -4 -14 -10 0 -5 -11 -12 -25 -16
-13 -3 -27 -15 -30 -25 -4 -10 -10 -19 -14 -19 -15 0 -61 -49 -61 -65 0 -8 -4
-15 -9 -15 -5 0 -12 -13 -16 -30 -4 -16 -11 -30 -16 -30 -5 0 -9 -11 -9 -25
l0 -25 -225 0 c-125 0 -225 -4 -225 -9 0 -5 -11 -12 -24 -15 -13 -3 -26 -16
-30 -28 -3 -13 -6 -166 -6 -340 0 -333 -2 -317 43 -354 21 -18 2391 -24 2408
-6 10 9 13 112 13 450 0 241 -3 443 -8 450 -5 9 -56 12 -187 12 l-179 0 0 -68
0 -68 -512 -12 c-282 -7 -604 -12 -716 -12 l-203 0 7 23 c3 12 11 23 15 25 5
2 9 10 9 18 0 8 5 14 11 14 7 0 22 11 35 25 13 14 30 25 38 25 8 0 16 6 18 13
6 15 604 31 876 22 117 -4 182 -3 182 4 0 5 -9 12 -19 16 -11 3 -23 15 -26 25
-4 11 -17 23 -31 26 -13 3 -24 10 -24 15 0 5 -6 9 -14 9 -8 0 -16 5 -18 11 -2
6 -27 14 -56 17 -29 2 -52 8 -52 13 0 5 -36 9 -80 9 l-80 0 0 259 c0 143 3
266 6 275 3 9 12 16 20 16 18 0 114 96 114 114 0 8 7 16 15 20 8 3 15 12 15
21 0 8 4 15 10 15 5 0 12 23 16 50 4 28 10 50 15 50 5 0 9 47 9 105 0 58 -4
105 -9 105 -5 0 -11 18 -15 40 -3 22 -10 40 -16 40 -5 0 -12 16 -16 35 -3 19
-10 35 -14 35 -5 0 -22 15 -39 33 -17 17 -36 37 -42 42 -5 6 -18 18 -27 28 -9
9 -22 17 -29 17 -7 0 -13 5 -13 10 0 6 -9 10 -19 10 -11 0 -21 5 -23 11 -2 5
-22 13 -46 16 -23 3 -42 10 -42 14 0 5 -22 9 -50 9 -27 0 -50 5 -50 10 0 6 -4
10 -10 10 -5 0 -10 -4 -10 -10z m40 -149 c0 -4 25 -11 55 -14 30 -3 62 -13 71
-21 8 -9 20 -16 25 -16 18 0 88 -77 95 -104 3 -14 10 -26 15 -26 5 0 9 -11 9
-25 0 -14 5 -25 10 -25 6 0 10 -33 10 -80 0 -47 -4 -80 -10 -80 -5 0 -10 -11
-10 -25 0 -14 -4 -25 -9 -25 -5 0 -13 -14 -16 -32 -7 -31 -48 -78 -69 -78 -6
0 -18 -9 -26 -20 -8 -12 -31 -23 -52 -27 -21 -3 -38 -9 -38 -14 0 -5 -36 -9
-80 -9 -44 0 -80 4 -80 9 0 5 -17 11 -37 14 -24 4 -45 16 -57 32 -10 14 -27
25 -37 25 -11 0 -19 6 -19 14 0 8 -6 21 -14 28 -7 8 -17 24 -20 36 -4 12 -12
22 -17 22 -5 0 -9 11 -9 25 0 14 -4 25 -10 25 -6 0 -10 33 -10 80 0 47 4 80
10 80 6 0 10 11 10 25 0 14 5 25 10 25 6 0 10 7 10 15 0 9 7 18 15 21 8 4 15
13 15 21 0 20 51 69 81 78 13 4 27 12 30 18 4 5 30 12 58 15 28 2 51 8 51 13
0 5 9 9 20 9 11 0 20 -4 20 -9z m60 -996 l0 -235 -80 0 -80 0 0 235 0 235 80
0 80 0 0 -235z m316 -751 c43 -48 94 -103 112 -122 17 -19 32 -42 32 -52 0
-18 -56 -80 -73 -80 -6 0 -27 15 -47 32 -33 31 -33 30 4 -9 l39 -42 -35 -38
c-98 -107 -114 -123 -126 -123 -21 0 -72 52 -72 74 0 12 32 55 78 102 l77 82
-73 78 c-99 108 -98 106 -61 149 17 19 39 35 48 35 10 0 53 -39 97 -86z m-313
-161 c3 -124 4 -230 1 -235 -3 -4 -266 -8 -585 -8 l-579 0 0 235 0 235 578 0
579 0 6 -227z m925 -230 l-3 -58 -185 0 -185 0 -3 44 c-5 74 -14 71 193 71
l186 0 -3 -57z"/>
</g>
</svg>
